<?xml version="1.0" standalone="no"?>
<!DOCTYPE svg PUBLIC "-//W3C//DTD SVG 20010904//EN"
 "http://www.w3.org/TR/2001/REC-SVG-20010904/DTD/svg10.dtd">
<svg version="1.0" xmlns="http://www.w3.org/2000/svg"
 width="300.000000pt" height="225.000000pt" viewBox="0 0 300.000000 225.000000"
 preserveAspectRatio="xMidYMid meet">
<metadata>
Created by potrace 1.10, written by Peter Selinger 2001-2011
</metadata>
<g transform="translate(0.000000,225.000000) scale(0.100000,-0.100000)"
fill="#000000" stroke="none">
<path d="M1327 2218 c11 -59 31 -115 32 -91 1 12 -4 34 -9 49 -8 19 -8 30 0
38 5 5 10 17 10 26 0 13 -1 13 -10 0 -6 -10 -10 -11 -10 -2 0 6 -4 12 -10 12
-5 0 -7 -14 -3 -32z"/>
<path d="M1534 2213 c3 -21 6 -57 6 -80 0 -24 5 -43 10 -43 11 0 14 101 4 138
-11 38 -27 25 -20 -15z"/>
<path d="M2364 2223 c-3 -16 -12 -46 -20 -68 -17 -49 -17 -55 -3 -55 13 0 35
53 44 108 8 47 -11 61 -21 15z"/>
<path d="M1375 1875 c-16 -7 -55 -18 -86 -25 -77 -15 -140 -56 -137 -90 1 -14
-1 -31 -5 -37 -11 -18 23 -142 44 -162 10 -9 22 -26 26 -39 8 -20 9 -19 19 13
10 31 9 33 -7 24 -21 -11 -39 9 -18 21 18 12 20 38 3 44 -19 7 -18 26 1 26 22
0 19 27 -4 33 -10 2 -20 16 -23 30 -3 15 -1 24 4 21 5 -4 8 4 6 17 -3 21 1 24
23 21 14 -2 31 4 38 12 7 8 18 13 25 10 7 -3 27 6 44 21 18 15 48 28 75 31 50
7 69 -7 32 -24 -14 -7 -25 -8 -25 -3 0 5 6 12 13 14 6 3 3 6 -8 6 -16 1 -21
-5 -20 -23 0 -24 15 -50 15 -27 0 7 4 10 8 7 5 -3 20 1 35 9 29 15 37 5 12
-15 -8 -7 -15 -9 -15 -5 0 4 -11 0 -25 -9 -14 -9 -25 -13 -25 -9 0 4 -7 -2
-16 -13 -8 -10 -12 -12 -8 -4 5 10 0 9 -14 -4 -26 -23 -28 -28 -5 -19 12 5 14
3 8 -8 -7 -11 -5 -11 10 1 16 14 17 13 11 -7 -6 -17 2 -13 33 18 51 53 74 47
108 -27 13 -30 27 -54 29 -54 5 0 -3 59 -13 94 -4 14 -1 18 11 13 9 -4 16 -2
16 3 0 4 -13 11 -29 15 -25 5 -29 11 -29 36 2 63 -67 95 -137 64z"/>
<path d="M1325 1770 c-18 -20 -18 -20 5 -17 13 2 24 11 26 20 3 23 -9 21 -31
-3z"/>
<path d="M1282 1738 c-6 -7 -13 -30 -17 -52 -6 -31 -5 -38 6 -34 8 3 14 16 15
29 0 13 4 34 8 47 8 25 4 28 -12 10z"/>
<path d="M1318 1683 c-9 -11 -8 -17 3 -24 9 -6 18 -4 25 6 6 8 14 12 18 8 4
-4 4 0 1 8 -7 20 -32 20 -47 2z"/>
<path d="M1502 1643 c-12 -2 -27 -13 -32 -24 -11 -19 -60 -27 -60 -9 0 22 -66
22 -108 0 -47 -25 -48 -26 -27 -46 8 -9 15 -24 15 -35 0 -11 13 -27 29 -37 20
-12 25 -20 17 -28 -6 -5 -14 -11 -19 -11 -26 -4 -32 -11 -20 -23 9 -10 20 -5
51 20 38 31 69 33 58 5 -3 -10 5 -13 29 -11 18 2 39 0 46 -4 6 -4 -9 -9 -35
-11 -25 -2 -46 0 -46 4 0 5 -10 7 -22 5 -15 -2 -24 -11 -26 -27 -3 -20 -1 -22
15 -16 10 4 49 10 86 13 l68 4 -7 -28 c-4 -16 -14 -34 -23 -41 -18 -13 -119
-14 -127 -1 -3 5 -10 6 -15 3 -5 -3 -27 12 -50 34 -22 23 -45 41 -50 41 -6 0
-8 9 -4 20 4 13 0 23 -14 32 -12 7 -21 20 -21 28 0 19 -28 60 -41 60 -13 0
-11 -71 4 -100 7 -14 22 -26 35 -28 28 -4 52 -80 52 -165 0 -74 21 -74 33 2 8
48 6 55 -18 87 -15 19 -25 37 -22 40 2 3 22 -18 43 -46 21 -28 49 -53 61 -55
13 -3 34 -7 48 -10 30 -6 24 -21 -13 -37 -26 -11 -26 -12 -4 -15 24 -5 30 -28
10 -36 -8 -3 -6 -6 4 -6 10 -1 31 20 49 46 29 41 33 44 41 27 7 -16 8 -15 4 5
-3 15 5 41 20 66 30 51 25 101 -12 115 -17 7 -22 14 -17 26 5 15 0 16 -41 12
-26 -3 -45 -3 -43 1 1 3 11 23 20 44 10 20 21 37 25 37 4 0 18 -20 31 -45 17
-32 30 -45 45 -44 12 0 15 3 8 6 -6 2 -10 9 -6 14 3 5 -2 9 -10 9 -8 0 -20 9
-27 21 -9 19 -8 20 10 14 14 -4 23 0 30 14 15 28 14 41 -4 35 -8 -4 -15 -12
-15 -20 0 -18 -8 -18 -26 1 -13 12 -12 15 7 25 11 7 23 9 26 6 3 -3 14 -1 24
4 11 6 20 6 23 1 4 -5 1 -11 -6 -13 -10 -4 -10 -15 0 -56 8 -28 11 -61 7 -73
-5 -14 -4 -19 4 -15 6 4 11 2 11 -3 0 -15 14 -14 60 6 30 13 40 23 40 40 0 13
5 23 10 23 6 0 -5 14 -23 30 -19 17 -42 30 -51 30 -13 0 -16 5 -11 20 5 16 2
20 -18 20 -14 0 -30 7 -37 15 -7 8 -15 14 -19 14 -3 -1 -16 -4 -29 -6z m-102
-55 c0 -5 -4 -7 -9 -4 -14 9 -41 -4 -41 -20 0 -19 -16 -18 -24 2 -3 8 -10 12
-16 9 -5 -3 -10 -2 -10 4 0 13 18 18 63 18 20 0 37 -4 37 -9z m20 -29 c0 -16
-4 -28 -9 -25 -5 3 -8 -2 -7 -11 2 -24 -46 -40 -79 -25 -24 11 -36 52 -15 52
6 0 10 -4 10 -10 0 -11 30 -13 55 -4 13 6 14 9 3 16 -9 7 -8 8 5 4 13 -4 20 0
24 14 8 29 13 25 13 -11z m170 4 c0 -21 3 -24 12 -15 14 14 28 16 28 4 0 -7
-43 -32 -55 -32 -2 0 -2 12 0 28 1 15 -2 30 -9 34 -7 5 -5 8 7 8 12 0 17 -8
17 -27z m-376 -96 c14 -21 2 -31 -21 -18 -10 6 -14 11 -9 11 5 0 3 6 -3 14
-10 12 -9 14 5 12 10 -2 23 -10 28 -19z"/>
<path d="M1745 1518 c-2 -7 -8 -33 -12 -58 -10 -48 -11 -49 -80 -35 -58 11
-100 -64 -69 -124 19 -35 42 -44 92 -37 31 5 35 4 30 -10 -5 -12 -2 -15 10
-10 12 5 15 2 10 -10 -5 -12 -2 -15 10 -10 12 4 15 2 10 -9 -3 -9 0 -15 9 -15
8 0 15 -5 15 -11 0 -6 7 -8 16 -5 12 4 15 2 10 -9 -4 -10 1 -15 15 -15 11 0
18 -4 15 -9 -7 -10 -44 -3 -63 12 -7 5 -32 6 -56 3 -50 -8 -77 0 -77 20 0 14
-14 23 -42 28 -7 1 -23 7 -35 14 -31 17 -41 15 -45 -10 -5 -34 -60 -60 -139
-66 -90 -6 -133 10 -124 47 6 24 6 25 -13 8 -10 -9 -24 -17 -30 -17 -6 0 -27
-9 -47 -20 -20 -11 -42 -20 -49 -20 -23 0 -110 -51 -163 -96 -52 -45 -116
-137 -128 -185 l-6 -26 358 -5 c197 -3 385 -4 418 -3 33 0 136 2 228 3 102 1
166 6 162 11 -3 6 30 9 82 8 49 -1 94 2 101 6 19 13 14 33 -14 53 -14 10 -56
43 -93 71 -36 29 -71 53 -78 53 -6 0 -14 6 -16 13 -4 9 -8 8 -16 -3 -5 -8 -13
-12 -16 -8 -3 3 1 13 11 22 9 9 14 25 11 36 -3 10 2 28 10 39 8 12 10 21 4 21
-5 0 -11 -5 -13 -11 -4 -11 -68 75 -68 91 0 6 -6 10 -12 10 -9 0 -8 4 2 10 8
5 10 10 4 10 -16 0 -117 69 -127 86 -11 19 10 55 30 52 24 -4 38 58 22 91 -10
21 -13 23 -16 9 -2 -9 1 -26 6 -37 7 -13 8 -22 1 -26 -5 -3 -10 0 -10 8 0 8
-7 18 -16 21 -11 4 -14 13 -10 31 6 25 -1 36 -9 13z m53 -231 c15 -12 132
-187 132 -197 0 -11 -39 -9 -46 2 -5 8 -1 9 12 4 13 -5 10 2 -11 22 -20 19
-33 25 -37 18 -5 -6 -8 -2 -8 12 0 12 -3 22 -7 22 -5 0 -34 24 -66 53 -43 38
-57 57 -52 69 5 13 14 16 38 11 18 -3 38 -11 45 -16z m-191 -133 c23 -17 45
-24 78 -24 67 0 135 -19 172 -49 17 -14 42 -33 54 -42 l22 -15 -32 -37 c-18
-20 -37 -52 -42 -71 l-9 -34 -93 -7 c-115 -9 -873 -2 -883 7 -12 13 17 67 58
105 22 21 51 48 64 61 13 13 24 19 24 15 0 -4 6 -1 13 7 7 8 19 16 27 18 8 2
29 10 45 18 17 9 50 22 73 30 40 14 47 14 80 -2 51 -24 186 -8 240 29 41 29
61 27 109 -9z m367 -170 c3 -9 4 -20 1 -24 -3 -5 2 -25 12 -44 9 -20 14 -38
11 -42 -11 -10 -118 17 -118 30 0 14 68 96 80 96 4 0 11 -7 14 -16z m63 -10
c11 4 13 2 9 -9 -4 -10 1 -15 14 -15 14 0 18 -5 13 -17 -6 -16 -5 -17 12 -3
17 14 18 13 12 -4 -6 -15 -4 -17 13 -13 21 5 25 0 12 -21 -5 -7 -16 -10 -25
-6 -10 3 -17 1 -17 -5 0 -6 -10 -11 -22 -11 -22 1 -23 1 -4 15 19 15 19 15 -2
15 -17 0 -27 11 -41 43 -13 29 -15 44 -7 49 6 4 12 1 14 -8 2 -9 10 -13 19
-10z"/>
<path d="M1855 1482 c10 -23 15 -51 12 -62 -3 -10 1 -24 9 -31 11 -9 14 -8 14
7 0 30 -24 102 -39 116 -8 9 -7 -1 4 -30z"/>
<path d="M1440 1390 c-33 -4 -40 -7 -27 -12 27 -11 65 -10 72 3 10 14 6 15
-45 9z"/>
<path d="M1797 1351 c3 -12 11 -21 18 -21 8 0 20 -3 28 -6 9 -3 16 3 20 15 4
16 0 20 -16 19 -12 0 -30 3 -39 6 -13 6 -15 3 -11 -13z"/>
<path d="M206 1329 c6 -10 73 -8 80 2 3 5 -14 8 -39 7 -25 -2 -43 -6 -41 -9z"/>
<path d="M1915 1330 c-4 -6 10 -30 30 -53 20 -23 39 -47 43 -52 4 -6 31 -38
60 -72 28 -34 52 -64 52 -67 0 -3 14 -19 30 -36 17 -17 30 -37 30 -44 0 -8 7
-19 15 -26 9 -7 13 -21 10 -31 -5 -14 -2 -17 9 -13 10 4 18 0 22 -10 3 -9 10
-16 15 -16 26 0 -77 151 -185 271 -37 41 -79 93 -93 117 -27 46 -29 47 -38 32z"/>
<path d="M2660 1241 c0 -11 79 -21 144 -20 l51 2 -65 8 c-36 4 -80 10 -97 13
-18 2 -33 1 -33 -3z"/>
<path d="M488 1213 c18 -2 45 -2 60 0 15 2 0 4 -33 4 -33 0 -45 -2 -27 -4z"/>
<path d="M223 1203 c26 -2 67 -2 90 0 23 2 2 3 -48 3 -50 0 -68 -1 -42 -3z"/>
<path d="M2190 880 c0 -11 -7 -20 -15 -20 -18 0 -20 -20 -2 -21 6 0 24 -3 38
-5 26 -4 26 -4 15 31 -12 38 -36 48 -36 15z"/>
<path d="M250 856 c0 -38 12 -46 65 -46 30 0 57 5 60 10 4 6 35 9 72 8 48 -2
67 1 71 10 3 10 -6 13 -39 11 -27 -2 -44 1 -47 9 -5 17 -32 15 -32 -3 0 -9 -6
-12 -16 -8 -9 3 -19 1 -23 -4 -8 -13 -81 -24 -81 -12 0 5 4 9 10 9 5 0 7 7 4
15 -8 19 -44 20 -44 1z"/>
<path d="M2010 830 c0 -5 18 -10 41 -10 24 0 38 4 34 10 -3 6 -22 10 -41 10
-19 0 -34 -4 -34 -10z"/>
<path d="M2316 808 c4 -13 7 -53 6 -89 -2 -65 -2 -67 24 -72 22 -4 28 0 37 27
6 17 10 34 9 39 -1 4 2 7 7 7 5 0 11 -12 13 -27 4 -24 5 -25 12 -10 5 10 4 41
-2 70 -6 29 -10 37 -8 20 2 -22 -2 -33 -11 -33 -7 0 -13 9 -13 20 0 13 -10 24
-25 30 -27 10 -34 23 -11 18 8 -2 16 2 18 7 2 6 -12 11 -30 13 -31 3 -33 2
-26 -20z"/>
<path d="M163 783 c-7 -3 -13 -13 -13 -23 0 -10 -5 -20 -11 -22 -9 -3 -9 -9
-1 -23 6 -11 13 -32 17 -47 3 -16 12 -28 20 -28 12 0 15 10 12 45 -2 25 -7 48
-11 52 -14 14 -4 23 28 23 31 0 34 -3 40 -37 10 -61 7 -103 -6 -103 -10 0 -9
-3 1 -9 16 -11 47 -3 62 15 9 10 16 11 32 2 16 -8 22 -8 25 1 2 7 28 11 67 11
85 0 97 -20 13 -21 -49 -1 -56 -3 -33 -9 33 -8 85 -2 100 11 14 14 119 11 133
-3 19 -19 32 8 32 69 0 32 6 57 15 66 11 12 64 16 247 22 264 8 1011 1 1046
-10 18 -6 21 -4 16 10 -7 16 -58 17 -878 14 -479 -2 -883 -6 -897 -10 -15 -4
-31 -4 -35 1 -5 4 -15 5 -21 3z m251 -24 c67 0 126 0 131 1 6 1 34 2 63 1 37
-1 52 -5 52 -15 0 -19 -32 -26 -132 -26 -47 0 -88 -4 -90 -9 -1 -4 -24 -10
-50 -13 -36 -4 -45 -2 -41 8 4 11 -7 14 -46 14 -43 0 -51 3 -51 18 0 24 10 34
28 27 8 -3 69 -6 136 -6z m-88 -96 c-2 -2 -16 -1 -30 3 -28 7 -30 30 -2 28 9
-1 16 3 17 10 0 6 5 0 10 -13 5 -13 8 -26 5 -28z m301 12 c8 -24 -3 -29 -54
-26 -41 2 -103 24 -103 36 0 3 34 5 75 5 59 0 77 -3 82 -15z"/>
<path d="M2108 783 c23 -2 61 -2 85 0 23 2 4 4 -43 4 -47 0 -66 -2 -42 -4z"/>
<path d="M2245 763 l0 -28 -133 0 -133 0 5 -150 c4 -145 5 -150 26 -153 20 -3
21 0 15 27 -6 28 -4 31 19 31 13 0 28 -5 31 -10 5 -8 11 -7 21 1 14 12 146 8
189 -6 19 -6 20 -1 20 81 0 48 -1 80 -3 72 -2 -9 -16 -19 -31 -23 -24 -5 -26
-9 -23 -40 3 -27 1 -35 -12 -35 -12 0 -16 9 -16 35 l0 35 -105 0 c-63 0 -105
4 -105 10 0 6 25 10 55 10 30 0 55 5 55 10 0 15 53 12 94 -5 l36 -15 0 49 c0
75 10 112 34 121 18 8 17 9 -9 9 -27 1 -31 -2 -30 -26z m-128 -60 c3 -7 -7
-15 -22 -19 -31 -8 -38 -3 -29 20 7 19 45 18 51 -1z m63 -3 c0 -11 7 -20 16
-20 8 0 13 -4 10 -9 -12 -18 -46 1 -46 25 0 13 5 24 10 24 6 0 10 -9 10 -20z
m-75 -60 c4 -6 -17 -10 -55 -10 -38 0 -59 4 -55 10 3 6 28 10 55 10 27 0 52
-4 55 -10z m98 -82 c7 -24 1 -26 -95 -32 -63 -4 -77 -2 -82 11 -10 26 13 42
67 45 77 4 104 -1 110 -24z"/>
<path d="M2436 674 c-9 -23 0 -29 20 -13 15 12 16 11 9 -10 -6 -20 -4 -22 14
-16 17 5 20 3 14 -11 -5 -13 -2 -15 17 -9 18 6 22 4 17 -9 -7 -18 8 -32 18
-16 10 16 25 2 18 -16 -5 -13 -1 -15 15 -9 18 5 22 2 22 -16 0 -17 3 -19 13
-10 17 13 28 4 20 -16 -5 -12 -1 -14 15 -8 37 11 24 -10 -13 -24 -37 -13 -195
-17 -232 -6 -17 6 -30 0 -54 -25 -22 -22 -34 -28 -39 -19 -9 14 -106 -35 -163
-82 -34 -28 -37 -35 -37 -83 0 -40 5 -57 19 -70 19 -17 19 -17 14 2 -2 11 0
23 7 27 8 5 6 11 -7 20 -10 7 -15 17 -11 21 5 4 17 -1 28 -11 11 -10 23 -15
27 -11 4 4 -5 18 -21 32 -26 25 -30 44 -10 51 5 1 17 -12 28 -30 10 -17 21
-27 23 -20 2 7 11 9 19 6 19 -7 18 11 -1 27 -22 18 -20 60 4 60 10 0 25 7 32
16 12 14 14 14 20 -3 4 -10 8 -33 8 -51 l1 -33 30 21 c17 12 29 29 29 38 -1
15 -2 15 -6 0 -7 -28 -20 -21 -25 12 -3 23 -1 30 9 26 8 -3 13 2 13 15 0 41
18 7 25 -48 l8 -58 9 42 9 43 29 -15 c40 -21 43 -19 16 10 -26 28 -44 74 -22
56 7 -6 17 -6 26 -1 8 6 29 10 45 10 29 -1 29 -1 10 -16 -11 -8 -25 -12 -32
-10 -16 6 -16 4 -1 -29 15 -34 38 -32 38 4 0 29 24 49 35 30 4 -5 0 -12 -8
-15 -17 -6 -10 -41 19 -102 8 -18 12 -42 9 -53 -9 -28 9 -46 47 -47 48 -2 178
19 178 29 0 12 -123 11 -156 -1 -19 -7 -30 -7 -40 1 -24 20 -15 29 29 31 l42
1 -45 6 c-67 9 -25 21 68 20 60 -1 69 -3 42 -9 -30 -6 -25 -8 29 -9 59 -1 63
0 58 20 -4 16 -3 18 9 9 19 -17 41 -63 36 -78 -2 -7 -11 -12 -20 -13 -10 -1
-6 -4 8 -8 24 -8 24 -9 -40 -73 -88 -88 -90 -91 -73 -106 8 -8 13 -9 13 -2 0
6 5 8 10 5 13 -8 67 25 104 64 17 17 33 31 37 31 15 0 22 -73 11 -104 -14 -36
-10 -41 17 -24 18 11 21 23 21 75 0 35 -4 63 -9 63 -5 0 -13 9 -16 20 -3 11
-13 20 -21 20 -8 0 -14 5 -14 10 0 13 17 13 25 0 10 -16 22 -12 39 14 14 22
14 27 1 40 -8 8 -15 18 -15 22 0 4 -11 17 -24 29 -14 13 -32 49 -42 85 -18 65
-35 81 -65 62 -22 -14 -49 -6 -49 14 0 8 -7 14 -15 14 -8 0 -15 7 -15 15 0 8
-6 15 -13 15 -7 0 -24 11 -39 25 -15 14 -31 25 -35 25 -5 0 -20 11 -35 25 -15
14 -30 25 -33 25 -4 0 -21 11 -38 24 -18 13 -44 31 -58 40 -25 16 -27 16 -33
0z m222 -222 c2 -14 11 -22 23 -22 22 0 23 4 9 31 -7 13 -7 19 0 19 5 0 10 -4
10 -10 0 -5 8 -6 17 -3 12 5 15 2 10 -10 -4 -11 -1 -17 8 -17 8 0 15 -5 15
-11 0 -6 6 -9 12 -7 19 7 58 -42 58 -71 0 -19 -57 -22 -96 -6 -36 15 -39 15
-51 -1 -11 -15 -13 -16 -13 -2 0 9 -6 18 -14 21 -17 7 -39 -16 -28 -28 4 -5 1
-5 -7 0 -9 5 -19 2 -27 -10 -17 -23 -21 -19 -29 24 l-6 34 59 -6 c55 -4 59 -3
55 14 -5 18 -12 19 -64 13 -37 -4 -59 -3 -59 3 0 11 46 23 86 23 27 0 28 3 13
32 -9 16 -8 19 3 16 7 -3 14 -14 16 -26z m161 -346 c-12 -14 -29 -26 -36 -26
-7 0 -13 -7 -13 -15 0 -8 -4 -15 -10 -15 -32 0 15 69 48 70 6 0 12 8 12 17 0
12 3 14 11 6 8 -8 4 -18 -12 -37z"/>
<path d="M2682 391 c13 -22 28 -28 28 -12 0 12 39 21 46 10 3 -5 10 -7 15 -4
21 14 6 22 -46 24 -54 2 -55 1 -43 -18z"/>
<path d="M2729 369 c-7 -5 -12 -9 -9 -9 3 0 20 -4 38 -9 20 -6 30 -6 27 0 -12
18 -41 28 -56 18z"/>
<path d="M194 550 c1 -62 5 -88 16 -97 20 -17 40 -16 40 1 0 16 21 26 56 26
33 0 30 -18 -3 -23 -16 -2 46 -4 137 -3 154 0 156 1 33 3 -84 2 -133 7 -133
14 0 7 45 10 128 9 70 -1 142 -1 160 -1 l32 1 0 61 c0 52 -2 60 -16 55 -9 -3
-94 -6 -190 -6 l-174 0 0 -36 c0 -30 -3 -35 -17 -30 -9 4 -20 1 -25 -6 -5 -8
-8 -2 -8 18 0 16 5 35 11 41 7 7 3 12 -15 17 -13 3 -27 14 -29 24 -3 9 -4 -21
-3 -68z m436 1 c0 -11 -5 -23 -11 -27 -16 -10 -302 -5 -313 6 -5 5 -6 16 -3
24 5 14 30 16 167 16 152 0 160 -1 160 -19z"/>
<path d="M1260 540 c-14 -4 -44 -8 -67 -9 -36 -1 -43 -4 -43 -21 0 -18 7 -20
75 -20 46 0 75 4 75 11 0 5 -4 8 -8 5 -4 -2 -14 -1 -22 5 -13 7 -13 9 1 9 9 0
16 7 16 15 0 8 -1 15 -1 14 -1 -1 -12 -5 -26 -9z"/>
<path d="M1450 540 c0 -7 -19 -10 -53 -7 -29 2 -62 0 -72 -4 -11 -4 -14 -8 -6
-8 11 -1 11 -4 1 -16 -11 -13 -2 -15 73 -15 93 0 112 10 78 41 -12 11 -21 15
-21 9z m20 -28 c0 -10 -116 -10 -126 1 -4 4 23 7 59 7 37 0 67 -4 67 -8z"/>
<path d="M623 453 c9 -2 17 -9 17 -14 0 -5 7 -9 15 -9 8 0 15 7 15 15 0 10
-10 15 -32 14 -18 -1 -25 -3 -15 -6z"/>
<path d="M589 392 c-9 -30 -8 -44 4 -72 l15 -35 1 57 c1 31 4 63 7 72 3 9 1
16 -5 16 -5 0 -15 -17 -22 -38z"/>
<path d="M733 407 c3 -9 697 -11 705 -2 6 6 -29 6 -431 8 -152 1 -276 -2 -274
-6z"/>
<path d="M1627 408 c-7 -4 66 -8 161 -8 94 0 172 3 172 8 0 9 -318 9 -333 0z"/>
<path d="M1984 235 c1 -185 15 -227 18 -52 3 198 3 210 -8 214 -7 2 -10 -53
-10 -162z"/>
<path d="M2020 378 c0 -13 7 -53 15 -90 8 -38 15 -97 16 -133 1 -36 6 -65 11
-65 4 0 8 6 9 13 0 6 2 21 5 32 2 11 5 40 8 64 3 35 1 44 -14 48 -17 5 -30 56
-30 124 0 16 -4 29 -10 29 -5 0 -10 -10 -10 -22z"/>
<path d="M625 381 c-8 -14 -29 -370 -22 -377 13 -13 16 1 22 101 17 243 23
266 22 77 -1 -116 2 -182 8 -182 6 0 10 71 10 192 0 174 -2 191 -17 194 -10 1
-20 -1 -23 -5z"/>
<path d="M870 351 c0 -4 48 -8 108 -9 160 -3 184 -3 221 4 19 4 36 2 40 -4 4
-7 13 -5 26 4 17 13 -6 14 -188 13 -114 0 -207 -4 -207 -8z"/>
<path d="M1360 348 c0 -5 5 -6 11 -2 6 3 15 0 20 -7 5 -8 9 -9 9 -3 0 18 43 9
51 -12 6 -15 7 -14 6 8 -1 26 -4 27 -49 26 -26 0 -48 -5 -48 -10z"/>
<path d="M1503 350 c-31 -13 -29 -24 2 -16 15 4 25 2 25 -4 0 -10 41 -7 60 5
36 22 -38 35 -87 15z"/>
<path d="M1621 355 c3 -3 32 -7 65 -9 32 -2 68 -7 78 -12 14 -5 17 -4 12 5 -6
8 3 10 35 5 28 -5 40 -4 36 3 -4 6 -54 11 -119 12 -62 1 -110 -1 -107 -4z"/>
<path d="M2330 247 c-56 -28 -28 -77 76 -127 77 -37 88 -37 112 -3 24 35 16
62 -28 93 -44 31 -49 18 -6 -17 38 -30 45 -53 22 -72 -11 -9 -22 -9 -50 3 -53
22 -136 79 -136 93 0 19 11 16 37 -9 13 -12 23 -16 23 -10 0 6 -4 14 -10 17
-12 8 -13 35 -1 35 5 0 16 -18 24 -39 9 -22 26 -46 38 -55 28 -20 38 -12 16
12 -10 10 -17 28 -17 40 0 22 -34 52 -60 52 -8 0 -26 -6 -40 -13z"/>
<path d="M0 240 c0 -6 29 -10 68 -10 37 -1 125 -1 197 -1 89 0 132 -4 137 -12
6 -9 8 -9 8 1 0 8 21 12 73 12 39 0 79 5 87 10 10 6 -85 10 -277 10 -189 0
-293 -4 -293 -10z"/>
<path d="M2057 63 c-4 -3 -7 -19 -7 -35 0 -19 5 -28 16 -28 11 0 15 6 11 20
-3 11 -1 23 4 26 5 3 7 10 4 15 -7 11 -19 12 -28 2z"/>
</g>
</svg>
